<?xml version="1.0" standalone="no"?>
<!DOCTYPE svg PUBLIC "-//W3C//DTD SVG 20010904//EN"
 "http://www.w3.org/TR/2001/REC-SVG-20010904/DTD/svg10.dtd">
<svg version="1.0" xmlns="http://www.w3.org/2000/svg"
 width="336.000000pt" height="299.000000pt" viewBox="0 0 336.000000 299.000000"
 preserveAspectRatio="xMidYMid meet">

<g transform="translate(0.000000,299.000000) scale(0.100000,-0.100000)"
fill="#000000" stroke="none">
<path d="M1659 2763 c0 -5 -3 -42 -5 -84 l-6 -76 59 -6 c76 -6 92 9 19 18 -54
7 -57 9 -54 34 3 24 6 26 46 23 56 -3 54 15 -3 24 -46 6 -50 10 -39 38 4 11
19 16 49 16 24 0 47 5 50 10 4 6 -17 10 -54 10 -34 0 -61 -3 -62 -7z"/>
<path d="M1910 2741 c0 -5 6 -24 14 -42 15 -34 14 -34 -27 -76 -26 -27 -36
-43 -26 -43 9 0 26 11 39 25 13 14 27 25 32 25 4 0 17 -18 28 -41 28 -54 38
-42 15 17 l-17 46 38 39 c24 25 33 39 23 39 -9 0 -26 -11 -39 -25 -31 -33 -36
-32 -50 10 -10 31 -30 49 -30 26z"/>
<path d="M1282 2694 c-14 -28 -25 -187 -12 -179 5 3 10 15 10 26 0 13 12 25
35 35 45 19 65 18 81 -3 16 -23 29 -11 16 14 -6 10 -35 42 -65 72 -50 48 -56
52 -65 35z m48 -49 c25 -27 21 -38 -17 -50 -21 -6 -23 -3 -23 34 0 48 8 50 40
16z"/>
<path d="M2135 2599 c-36 -71 -44 -117 -11 -67 17 26 18 26 52 12 42 -18 69
-11 90 21 21 32 11 59 -30 85 -52 32 -62 27 -101 -51z m84 36 c38 -19 44 -39
22 -66 -17 -21 -21 -22 -52 -9 -19 7 -35 14 -37 16 -5 3 26 74 33 74 3 0 19
-7 34 -15z"/>
<path d="M1080 2611 c0 -8 13 -36 30 -62 16 -27 26 -49 21 -49 -4 0 -41 14
-81 30 -40 17 -76 28 -79 24 -6 -6 40 -96 70 -135 32 -43 31 -12 -2 40 -17 29
-29 54 -27 56 3 3 33 -6 68 -20 35 -14 72 -25 82 -25 17 0 17 5 -9 50 -35 63
-72 110 -73 91z"/>
<path d="M2357 2488 c-26 -34 -47 -69 -47 -78 1 -11 6 -9 20 8 18 22 20 22 45
6 21 -14 25 -22 20 -45 -4 -16 -3 -34 2 -41 5 -9 10 -1 13 22 4 25 11 36 25
38 64 12 73 75 18 121 -21 17 -40 31 -43 31 -3 0 -26 -28 -53 -62z m102 -2
c20 -24 6 -66 -22 -66 -26 0 -67 26 -67 42 0 7 10 22 21 34 23 24 42 21 68
-10z"/>
<path d="M827 2444 c-3 -3 3 -31 14 -61 29 -84 28 -85 -42 -61 -46 16 -63 18
-72 9 -9 -9 3 -26 51 -73 74 -72 98 -70 27 2 -51 52 -49 60 12 35 40 -17 73
-20 73 -6 0 5 -7 28 -15 51 -23 65 -19 68 30 20 24 -24 48 -41 52 -37 6 7
-105 127 -118 127 -3 0 -8 -3 -12 -6z"/>
<path d="M1464 2376 c-261 -69 -475 -244 -589 -480 -69 -143 -89 -234 -89
-401 1 -110 5 -157 22 -218 77 -282 274 -510 530 -615 248 -101 513 -93 747
22 157 78 270 177 363 320 100 153 143 305 143 498 0 142 -24 254 -81 375 -54
116 -113 195 -216 292 -71 66 -107 91 -198 135 -153 76 -201 87 -386 92 -140
4 -164 2 -246 -20z m406 -61 c148 -32 280 -105 398 -219 174 -168 254 -359
253 -605 -1 -281 -135 -532 -365 -686 -504 -335 -1167 -59 -1290 537 -59 286
63 622 292 804 206 164 457 223 712 169z"/>
<path d="M1367 2163 c-4 -3 -7 -26 -7 -50 l0 -43 270 0 c176 0 270 -4 270 -10
0 -6 -52 -112 -116 -236 -64 -124 -114 -227 -112 -229 2 -3 48 31 101 76 l97
80 80 159 c68 136 80 167 80 210 l0 50 -328 0 c-181 0 -332 -3 -335 -7z"/>
<path d="M1150 1940 l0 -50 328 0 328 0 22 45 c12 25 22 48 22 50 0 3 -157 5
-350 5 l-350 0 0 -50z"/>
<path d="M1982 1945 c-12 -25 -22 -47 -22 -50 0 -2 21 -5 47 -7 l46 -3 -79
-65 c-43 -36 -92 -77 -109 -91 -28 -25 -86 -73 -542 -454 l-192 -160 -1 -52 0
-53 113 0 113 0 22 45 c12 25 22 47 22 50 0 2 -24 5 -52 7 l-53 3 259 215
c143 118 354 294 470 390 l211 175 3 48 3 47 -118 0 -119 0 -22 -45z"/>
<path d="M1600 1351 l-93 -79 -88 -168 c-75 -143 -89 -176 -89 -216 l0 -48
350 0 350 0 0 50 0 50 -285 0 c-157 0 -285 2 -285 4 0 2 54 111 121 241 67
130 119 238 117 240 -2 3 -46 -31 -98 -74z"/>
<path d="M1532 1065 c-12 -25 -22 -48 -22 -50 0 -3 167 -5 370 -5 l370 0 0 50
0 50 -348 0 -348 0 -22 -45z"/>
<path d="M2556 2315 c-40 -35 -64 -61 -59 -68 19 -32 69 -85 76 -80 4 2 -7 22
-24 44 -30 39 -31 40 -13 60 17 19 18 19 51 -13 41 -39 57 -29 18 12 -28 29
-28 30 -10 50 l19 21 38 -38 c47 -46 50 -23 4 30 l-34 38 -66 -56z"/>
<path d="M590 2141 c0 -20 102 -161 112 -155 5 3 3 16 -6 28 -13 21 -12 27 11
65 21 35 30 42 49 38 31 -6 41 9 11 16 -57 14 -177 19 -177 8z m108 -25 c2 -3
-3 -18 -13 -33 l-18 -27 -23 30 c-13 16 -24 33 -24 38 0 9 68 2 78 -8z"/>
<path d="M2721 2132 c-5 -10 -7 -37 -4 -60 4 -33 2 -43 -11 -48 -24 -9 -46 14
-46 47 0 16 -4 29 -10 29 -5 0 -10 -12 -10 -26 0 -53 43 -94 80 -74 15 8 20
23 22 68 3 67 24 77 47 25 18 -40 36 -44 26 -5 -14 57 -72 84 -94 44z"/>
<path d="M495 1948 c-37 -102 -40 -118 -26 -118 4 0 14 20 21 45 7 25 16 45
21 45 4 0 27 -31 51 -70 24 -38 48 -70 53 -70 6 0 21 30 32 66 13 39 17 64 10
61 -6 -2 -18 -25 -27 -52 l-17 -49 -35 55 c-19 30 -40 65 -47 77 -13 24 -29
29 -36 10z"/>
<path d="M2820 1911 c-5 -11 -10 -36 -10 -56 0 -24 -5 -38 -16 -42 -23 -9 -44
23 -44 65 0 19 -4 31 -10 27 -15 -9 -12 -68 6 -93 17 -24 53 -29 72 -10 7 7
12 29 12 49 0 37 21 66 39 55 6 -4 13 -22 17 -41 9 -48 28 -45 21 2 -10 58
-64 85 -87 44z"/>
<path d="M486 1658 c-8 -68 -7 -270 2 -327 4 -24 12 -46 17 -48 6 -2 10 73 10
212 0 151 -3 215 -11 215 -6 0 -14 -24 -18 -52z"/>
<path d="M2858 1663 c9 -61 9 -262 0 -330 -6 -42 -4 -53 7 -53 22 0 30 61 30
225 0 160 -7 205 -30 205 -12 0 -13 -9 -7 -47z"/>
<path d="M610 1206 c0 -7 7 -32 15 -55 8 -22 11 -41 8 -41 -4 0 -42 14 -85 31
-43 18 -81 29 -85 25 -7 -7 27 -125 39 -132 12 -8 9 26 -6 69 -8 20 -10 37 -5
37 5 0 42 -13 84 -30 42 -16 78 -30 80 -30 9 0 5 29 -12 85 -16 51 -33 73 -33
41z"/>
<path d="M2752 1197 c-18 -21 -24 -64 -12 -86 16 -31 45 -26 81 14 18 19 38
35 45 35 22 0 25 -32 5 -66 -17 -28 -18 -34 -6 -34 9 0 23 16 32 35 13 28 14
39 5 60 -16 36 -49 32 -93 -11 -37 -36 -59 -38 -59 -5 0 9 7 26 15 37 8 10 15
22 15 27 0 11 -17 8 -28 -6z"/>
<path d="M2656 975 c-46 -69 11 -114 76 -60 17 14 36 24 42 22 22 -7 18 -46
-8 -70 -27 -25 -32 -37 -17 -37 19 0 61 54 61 79 0 55 -35 65 -87 25 -53 -40
-89 -10 -43 36 24 24 25 30 6 30 -7 0 -21 -11 -30 -25z"/>
<path d="M685 944 c-11 -2 -46 -6 -77 -9 -60 -7 -81 -25 -29 -25 37 0 80 -63
62 -92 -17 -27 -14 -46 4 -28 29 30 104 144 99 152 -5 8 -19 8 -59 2z m29 -26
c-4 -7 -17 -25 -28 -40 l-20 -28 -18 28 c-24 37 -23 40 15 45 17 2 38 5 45 5
8 1 10 -3 6 -10z"/>
<path d="M2527 788 c-20 -25 -37 -47 -37 -50 0 -2 30 -29 66 -58 l66 -54 38
44 c21 25 36 49 33 54 -4 5 -19 -7 -36 -27 -32 -41 -41 -44 -63 -23 -19 20
-18 26 13 58 14 15 23 31 19 35 -4 4 -20 -7 -35 -26 -24 -30 -30 -32 -49 -22
-29 15 -28 29 4 62 14 15 24 33 22 40 -2 7 -20 -7 -41 -33z"/>
<path d="M775 730 c-68 -69 -69 -92 -1 -30 51 47 53 45 30 -24 -9 -26 -14 -50
-11 -52 3 -3 31 2 62 11 32 9 59 14 61 12 2 -2 -16 -23 -42 -46 -25 -24 -42
-46 -39 -49 3 -3 33 22 67 56 34 34 59 64 55 68 -3 4 -34 -1 -68 -10 -33 -10
-63 -15 -66 -12 -3 3 4 32 15 65 19 55 19 71 3 71 -4 0 -33 -27 -66 -60z"/>
<path d="M2338 611 l-37 -28 50 -66 c28 -37 54 -67 60 -67 12 0 11 6 -3 31
-19 30 12 50 66 44 l41 -5 -31 14 c-26 12 -31 19 -26 41 6 33 -22 65 -57 65
-14 0 -43 -13 -63 -29z m92 -6 c16 -19 4 -52 -27 -72 -25 -17 -26 -16 -49 12
l-24 30 25 23 c30 25 57 28 75 7z"/>
<path d="M1007 524 c-46 -78 -44 -111 2 -36 18 28 36 50 40 47 5 -2 11 -37 14
-76 3 -40 10 -76 15 -81 11 -11 96 125 90 144 -3 7 -20 -13 -38 -45 -39 -64
-50 -60 -50 18 0 62 -9 95 -24 95 -6 0 -28 -30 -49 -66z"/>
<path d="M2135 493 c-16 -8 -31 -17 -33 -18 -7 -5 69 -155 79 -155 7 0 8 7 4
18 -4 9 -9 22 -11 27 -2 6 13 19 33 30 28 15 39 27 41 48 7 59 -50 84 -113 50z
m91 -30 c6 -20 2 -31 -16 -45 -33 -27 -56 -23 -71 13 -11 28 -10 33 6 45 10 8
31 14 47 14 22 0 29 -6 34 -27z"/>
<path d="M1266 384 c-32 -36 -56 -68 -52 -71 3 -3 15 2 25 11 18 16 24 17 63
5 29 -10 44 -21 46 -34 2 -11 8 -24 14 -30 10 -10 2 161 -9 178 -11 18 -33 3
-87 -59z m74 -5 c0 -37 -2 -40 -22 -34 -39 12 -43 23 -18 50 32 34 40 32 40
-16z"/>
<path d="M1966 405 c-17 -40 -26 -43 -51 -15 -10 11 -25 20 -34 20 -10 0 -3
-12 21 -37 l36 -38 -18 -40 c-22 -48 -23 -55 -10 -55 6 0 17 18 26 40 9 22 19
40 23 40 4 0 18 -11 31 -25 13 -14 30 -25 39 -25 10 0 1 14 -23 39 -41 42 -41
40 -11 114 4 10 3 17 -4 17 -6 0 -17 -16 -25 -35z"/>
<path d="M1654 385 c-4 -11 0 -129 6 -162 1 -9 120 -1 120 7 0 6 -22 10 -49
10 -34 0 -51 4 -55 15 -11 29 5 45 45 45 21 0 39 5 39 10 0 6 -21 10 -46 10
-44 0 -45 1 -42 28 3 25 7 27 51 30 66 4 59 22 -8 22 -40 0 -57 -4 -61 -15z"/>
</g>
</svg>
